<?xml version="1.0" encoding="UTF-8"?>
<svg xmlns="http://www.w3.org/2000/svg" xmlns:xlink="http://www.w3.org/1999/xlink" width="50pt" height="50pt" viewBox="0 0 50 50" version="1.1">
<defs>
<clipPath id="clip1">
  <path d="M 17 36 L 33 36 L 33 44 L 17 44 Z M 17 36 "/>
</clipPath>
<clipPath id="clip2">
  <path d="M 19.160156 47.085938 C 19.472656 48.527344 20.234375 49.375 20.996094 49.875 L 29.023438 49.875 C 30 49.222656 30.996094 47.988281 30.996094 45.679688 L 30.996094 39.71875 C 30.996094 39.71875 31.113281 38.238281 32.5 37.757812 C 32.5 37.757812 33.300781 37.199219 32.441406 36.890625 C 32.441406 36.890625 28.632812 36.582031 28.632812 39.660156 L 28.632812 44.199219 C 28.632812 44.199219 28.789062 45.875 27.890625 46.566406 L 27.890625 40.949219 C 27.890625 40.949219 27.949219 39.160156 28.886719 38.488281 C 28.886719 38.488281 29.511719 37.390625 28.144531 37.679688 C 28.144531 37.679688 25.527344 38.046875 25.410156 41.066406 L 25.351562 46.835938 L 24.726562 46.835938 L 24.667969 41.066406 C 24.550781 38.066406 21.933594 37.679688 21.933594 37.679688 C 20.566406 37.371094 21.191406 38.488281 21.191406 38.488281 C 22.128906 39.160156 22.1875 40.949219 22.1875 40.949219 L 22.1875 46.625 C 21.289062 45.988281 21.445312 44.199219 21.445312 44.199219 L 21.445312 39.660156 C 21.445312 36.582031 17.636719 36.890625 17.636719 36.890625 C 16.757812 37.199219 17.578125 37.757812 17.578125 37.757812 C 18.945312 38.257812 19.082031 39.71875 19.082031 39.71875 L 19.082031 43.894531 Z M 19.160156 47.085938 "/>
</clipPath>
</defs>
<g id="surface1">
<path style=" stroke:none;fill-rule:nonzero;fill:rgb(61.960784%,86.27451%,94.901961%);fill-opacity:1;" d="M 39.238281 38.429688 C 39.238281 41.105469 32.949219 43.257812 25.195312 43.257812 C 17.441406 43.257812 11.152344 41.085938 11.152344 38.429688 C 11.152344 35.757812 17.441406 33.601562 25.195312 33.601562 C 32.949219 33.601562 39.238281 35.757812 39.238281 38.429688 Z M 39.238281 38.429688 "/>
<g clip-path="url(#clip1)" clip-rule="nonzero">
<g clip-path="url(#clip2)" clip-rule="nonzero">
<path style=" stroke:none;fill-rule:nonzero;fill:rgb(49.019608%,73.72549%,90.588235%);fill-opacity:1;" d="M 39.238281 38.429688 C 39.238281 41.105469 32.949219 43.257812 25.195312 43.257812 C 17.441406 43.257812 11.152344 41.085938 11.152344 38.429688 C 11.152344 35.757812 17.441406 33.601562 25.195312 33.601562 C 32.949219 33.601562 39.238281 35.757812 39.238281 38.429688 Z M 39.238281 38.429688 "/>
</g>
</g>
<path style=" stroke:none;fill-rule:nonzero;fill:rgb(61.960784%,86.27451%,94.901961%);fill-opacity:1;" d="M 9.160156 24.214844 L 8.75 25.601562 C 8.75 25.601562 8.652344 26.101562 9.121094 26.195312 C 9.628906 26.179688 9.589844 25.714844 9.550781 25.582031 Z M 9.160156 24.214844 "/>
<path style=" stroke:none;fill-rule:nonzero;fill:rgb(0.392157%,0.392157%,0.392157%);fill-opacity:1;" d="M 49.960938 18.386719 L 50 18.214844 C 45.878906 17.40625 41.660156 17.386719 39.101562 17.503906 C 39.511719 16.023438 39.648438 14.292969 39.648438 12.386719 C 39.648438 9.636719 38.59375 7.445312 36.914062 5.789062 C 37.207031 4.847656 37.597656 2.75 36.523438 0.078125 C 36.523438 0.078125 34.609375 -0.519531 30.253906 2.347656 C 28.554688 1.921875 26.738281 1.710938 24.921875 1.710938 C 22.929688 1.710938 20.917969 1.960938 19.023438 2.460938 C 14.53125 -0.558594 12.558594 0.0585938 12.558594 0.0585938 C 11.269531 3.230469 12.070312 5.597656 12.304688 6.175781 C 10.78125 7.789062 9.863281 9.847656 9.863281 12.367188 C 9.863281 14.273438 10.078125 15.984375 10.625 17.464844 C 8.046875 17.367188 3.984375 17.40625 0 18.195312 L 0.0390625 18.367188 C 4.023438 17.582031 8.125 17.5625 10.683594 17.65625 C 10.800781 17.964844 10.9375 18.273438 11.074219 18.5625 C 8.535156 18.636719 4.21875 18.964844 0.078125 20.121094 L 0.136719 20.292969 C 4.316406 19.136719 8.671875 18.832031 11.191406 18.753906 C 12.714844 21.523438 15.683594 23.332031 20.996094 23.890625 C 20.234375 24.390625 19.472656 25.234375 19.160156 26.679688 C 18.125 27.160156 14.882812 28.351562 12.929688 25.042969 C 12.929688 25.042969 11.835938 23.082031 9.746094 22.925781 C 9.746094 22.925781 7.714844 22.890625 9.609375 24.175781 C 9.609375 24.175781 10.957031 24.8125 11.894531 27.179688 C 11.894531 27.179688 13.125 31.21875 19.003906 29.910156 L 19.003906 34.042969 C 19.003906 34.042969 18.886719 35.527344 17.5 36.007812 C 17.5 36.007812 16.679688 36.566406 17.558594 36.871094 C 17.558594 36.871094 21.367188 37.179688 21.367188 34.101562 L 21.367188 29.5625 C 21.367188 29.5625 21.210938 27.753906 22.109375 27.140625 L 22.109375 34.601562 C 22.109375 34.601562 22.050781 36.390625 21.113281 37.066406 C 21.113281 37.066406 20.488281 38.160156 21.855469 37.871094 C 21.855469 37.871094 24.472656 37.507812 24.589844 34.488281 L 24.648438 26.929688 L 25.273438 26.929688 L 25.332031 34.488281 C 25.449219 37.488281 28.066406 37.871094 28.066406 37.871094 C 29.433594 38.179688 28.808594 37.066406 28.808594 37.066406 C 27.871094 36.390625 27.8125 34.601562 27.8125 34.601562 L 27.8125 27.199219 C 28.710938 27.890625 28.554688 29.5625 28.554688 29.5625 L 28.554688 34.101562 C 28.554688 37.179688 32.363281 36.871094 32.363281 36.871094 C 33.242188 36.566406 32.421875 36.007812 32.421875 36.007812 C 31.054688 35.507812 30.917969 34.042969 30.917969 34.042969 L 30.917969 28.082031 C 30.917969 25.753906 29.921875 24.523438 28.945312 23.890625 C 34.609375 23.332031 37.324219 21.542969 38.574219 18.734375 C 41.054688 18.792969 45.527344 19.101562 49.785156 20.292969 L 49.84375 20.121094 C 45.605469 18.945312 41.171875 18.636719 38.652344 18.5625 C 38.769531 18.273438 38.867188 17.984375 38.964844 17.675781 C 41.582031 17.582031 45.820312 17.582031 49.960938 18.386719 Z M 49.960938 18.386719 "/>
<path style=" stroke:none;fill-rule:nonzero;fill:rgb(96.078431%,80%,70.196078%);fill-opacity:1;" d="M 34.101562 12.253906 C 35.3125 13.347656 36.035156 14.65625 36.035156 16.0625 C 36.035156 22.675781 31.035156 22.851562 24.863281 22.851562 C 18.691406 22.851562 13.691406 21.925781 13.691406 16.0625 C 13.691406 14.65625 14.394531 13.347656 15.605469 12.273438 C 17.617188 10.464844 21.015625 11.425781 24.863281 11.425781 C 28.710938 11.425781 32.089844 10.445312 34.101562 12.253906 Z M 34.101562 12.253906 "/>
<path style=" stroke:none;fill-rule:nonzero;fill:rgb(100%,100%,100%);fill-opacity:1;" d="M 21.152344 16.40625 C 21.152344 18.234375 20.117188 19.695312 18.828125 19.695312 C 17.539062 19.695312 16.503906 18.214844 16.503906 16.40625 C 16.503906 14.578125 17.539062 13.117188 18.828125 13.117188 C 20.117188 13.097656 21.152344 14.578125 21.152344 16.40625 Z M 21.152344 16.40625 "/>
<path style=" stroke:none;fill-rule:nonzero;fill:rgb(68.627451%,36.078431%,31.764706%);fill-opacity:1;" d="M 20.410156 16.445312 C 20.410156 17.65625 19.707031 18.636719 18.867188 18.636719 C 18.007812 18.636719 17.324219 17.65625 17.324219 16.445312 C 17.324219 15.234375 18.027344 14.253906 18.867188 14.253906 C 19.707031 14.253906 20.410156 15.234375 20.410156 16.445312 Z M 20.410156 16.445312 "/>
<path style=" stroke:none;fill-rule:nonzero;fill:rgb(100%,100%,100%);fill-opacity:1;" d="M 33.632812 16.40625 C 33.632812 18.234375 32.597656 19.695312 31.308594 19.695312 C 30.019531 19.695312 28.984375 18.214844 28.984375 16.40625 C 28.984375 14.578125 30.019531 13.117188 31.308594 13.117188 C 32.578125 13.097656 33.632812 14.578125 33.632812 16.40625 Z M 33.632812 16.40625 "/>
<path style=" stroke:none;fill-rule:nonzero;fill:rgb(68.627451%,36.078431%,31.764706%);fill-opacity:1;" d="M 32.871094 16.445312 C 32.871094 17.65625 32.167969 18.636719 31.328125 18.636719 C 30.46875 18.636719 29.785156 17.65625 29.785156 16.445312 C 29.785156 15.234375 30.488281 14.253906 31.328125 14.253906 C 32.1875 14.253906 32.871094 15.234375 32.871094 16.445312 Z M 25.488281 19.332031 C 25.488281 19.636719 25.234375 19.90625 24.902344 19.90625 C 24.589844 19.90625 24.316406 19.65625 24.316406 19.332031 C 24.316406 19.003906 24.570312 18.753906 24.902344 18.753906 C 25.214844 18.753906 25.488281 19.003906 25.488281 19.332031 Z M 23.554688 20.773438 C 23.515625 20.675781 23.574219 20.582031 23.671875 20.542969 C 23.769531 20.503906 23.867188 20.5625 23.90625 20.65625 C 24.0625 21.082031 24.453125 21.351562 24.902344 21.351562 C 25.351562 21.351562 25.742188 21.0625 25.898438 20.65625 C 25.9375 20.5625 26.035156 20.503906 26.132812 20.542969 C 26.230469 20.582031 26.289062 20.675781 26.25 20.773438 C 26.054688 21.332031 25.507812 21.714844 24.902344 21.714844 C 24.296875 21.714844 23.75 21.332031 23.554688 20.773438 Z M 23.554688 20.773438 "/>
<path style=" stroke:none;fill-rule:nonzero;fill:rgb(76.862745%,89.803922%,85.098039%);fill-opacity:1;" d="M 10.644531 23.390625 C 10.644531 23.542969 10.46875 23.660156 10.234375 23.660156 C 10.019531 23.660156 9.824219 23.542969 9.824219 23.390625 C 9.824219 23.234375 10 23.121094 10.234375 23.121094 C 10.46875 23.121094 10.644531 23.234375 10.644531 23.390625 Z M 11.777344 24.003906 C 11.777344 24.160156 11.601562 24.273438 11.367188 24.273438 C 11.152344 24.273438 10.957031 24.160156 10.957031 24.003906 C 10.957031 23.851562 11.132812 23.734375 11.367188 23.734375 C 11.601562 23.734375 11.777344 23.851562 11.777344 24.003906 Z M 12.460938 24.8125 C 12.460938 24.964844 12.285156 25.082031 12.050781 25.082031 C 11.835938 25.082031 11.640625 24.964844 11.640625 24.8125 C 11.640625 24.660156 11.816406 24.542969 12.050781 24.542969 C 12.285156 24.523438 12.460938 24.660156 12.460938 24.8125 Z M 13.085938 25.734375 C 13.085938 25.890625 12.910156 26.003906 12.675781 26.003906 C 12.460938 26.003906 12.265625 25.890625 12.265625 25.734375 C 12.265625 25.582031 12.441406 25.464844 12.675781 25.464844 C 12.910156 25.445312 13.085938 25.582031 13.085938 25.734375 Z M 13.769531 26.582031 C 13.769531 26.734375 13.59375 26.851562 13.359375 26.851562 C 13.144531 26.851562 12.949219 26.734375 12.949219 26.582031 C 12.949219 26.429688 13.125 26.3125 13.359375 26.3125 C 13.59375 26.3125 13.769531 26.429688 13.769531 26.582031 Z M 14.707031 27.332031 C 14.707031 27.484375 14.53125 27.601562 14.296875 27.601562 C 14.082031 27.601562 13.886719 27.484375 13.886719 27.332031 C 13.886719 27.179688 14.0625 27.0625 14.296875 27.0625 C 14.53125 27.042969 14.707031 27.179688 14.707031 27.332031 Z M 16.015625 27.8125 C 16.015625 27.964844 15.839844 28.082031 15.605469 28.082031 C 15.390625 28.082031 15.195312 27.964844 15.195312 27.8125 C 15.195312 27.660156 15.371094 27.542969 15.605469 27.542969 C 15.839844 27.542969 16.015625 27.660156 16.015625 27.8125 Z M 17.324219 27.8125 C 17.324219 27.964844 17.148438 28.082031 16.914062 28.082031 C 16.699219 28.082031 16.503906 27.964844 16.503906 27.8125 C 16.503906 27.660156 16.679688 27.542969 16.914062 27.542969 C 17.148438 27.542969 17.324219 27.660156 17.324219 27.8125 Z M 18.652344 27.601562 C 18.652344 27.753906 18.476562 27.871094 18.242188 27.871094 C 18.027344 27.871094 17.832031 27.753906 17.832031 27.601562 C 17.832031 27.449219 18.007812 27.332031 18.242188 27.332031 C 18.457031 27.332031 18.652344 27.449219 18.652344 27.601562 Z M 18.652344 27.601562 "/>
</g>
</svg>
