<?xml version="1.0" encoding="UTF-8"?>
<svg xmlns="http://www.w3.org/2000/svg" xmlns:xlink="http://www.w3.org/1999/xlink" width="42pt" height="50pt" viewBox="0 0 42 50" version="1.1">
<defs>
<radialGradient id="radial0" gradientUnits="userSpaceOnUse" cx="466.99" cy="1166.6" fx="466.99" fy="1166.6" r="203.9" gradientTransform="matrix(0.0952694,0,0,0.0276493,-23.48976,10.529333)">
<stop offset="0" style="stop-color:rgb(24.705882%,14.901961%,0%);stop-opacity:0.6;"/>
<stop offset="1" style="stop-color:rgb(24.705882%,14.901961%,0%);stop-opacity:0;"/>
</radialGradient>
<linearGradient id="linear0" gradientUnits="userSpaceOnUse" x1="400.58" y1="369.53" x2="400.84" y2="304.08" gradientTransform="matrix(-0.064844,-0.000860972,-0.00246711,0.170458,57.982176,-23.818)">
<stop offset="0" style="stop-color:rgb(100%,93.333333%,84.313725%);stop-opacity:1;"/>
<stop offset="1" style="stop-color:rgb(74.117647%,74.901961%,76.078431%);stop-opacity:1;"/>
</linearGradient>
<linearGradient id="linear1" gradientUnits="userSpaceOnUse" x1="303.02" y1="237.93" x2="297.09" y2="330.1" gradientTransform="matrix(0.0949749,-0.0053104,-0.00276851,0.0714231,-7.298592,-12.667333)">
<stop offset="0" style="stop-color:rgb(100%,100%,100%);stop-opacity:0.8;"/>
<stop offset="1" style="stop-color:rgb(100%,100%,100%);stop-opacity:0;"/>
</linearGradient>
<linearGradient id="linear2" gradientUnits="userSpaceOnUse" x1="378.94" y1="278.6" x2="380.27" y2="243.92" gradientTransform="matrix(0.0715709,-0.00411135,0.00634779,0.109619,-11.1552,-16.124667)">
<stop offset="0" style="stop-color:rgb(100%,93.333333%,84.313725%);stop-opacity:1;"/>
<stop offset="1" style="stop-color:rgb(74.117647%,74.901961%,76.078431%);stop-opacity:1;"/>
</linearGradient>
<linearGradient id="linear3" gradientUnits="userSpaceOnUse" x1="381.39" y1="277.5" x2="380.55" y2="245.68" gradientTransform="matrix(-0.0993564,0.00269499,0.00261137,0.126822,60.258912,-23.268667)">
<stop offset="0" style="stop-color:rgb(100%,93.333333%,84.313725%);stop-opacity:1;"/>
<stop offset="1" style="stop-color:rgb(74.117647%,74.901961%,76.078431%);stop-opacity:1;"/>
</linearGradient>
<linearGradient id="linear4" gradientUnits="userSpaceOnUse" x1="379.1" y1="240.93" x2="376.8" y2="281.02" gradientTransform="matrix(-0.0263546,-0.00198409,-0.00385081,0.038832,33.784128,1.517333)">
<stop offset="0" style="stop-color:rgb(100%,100%,100%);stop-opacity:0.65098;"/>
<stop offset="1" style="stop-color:rgb(100%,100%,100%);stop-opacity:0;"/>
</linearGradient>
<linearGradient id="linear5" gradientUnits="userSpaceOnUse" x1="389.64" y1="242.28" x2="387.07" y2="281.33" gradientTransform="matrix(0.0195832,-0.00222197,0.00340063,0.0325395,9.312576,3.382533)">
<stop offset="0" style="stop-color:rgb(100%,100%,100%);stop-opacity:0.65098;"/>
<stop offset="1" style="stop-color:rgb(100%,100%,100%);stop-opacity:0;"/>
</linearGradient>
<linearGradient id="linear6" gradientUnits="userSpaceOnUse" x1="0" y1="650.63" x2="0" y2="484.84" spreadMethod="reflect" gradientTransform="matrix(0.084,0,0,0.0833333,-8.42016,-15.498667)">
<stop offset="0" style="stop-color:rgb(100%,93.333333%,84.313725%);stop-opacity:1;"/>
<stop offset="1" style="stop-color:rgb(74.117647%,74.901961%,76.078431%);stop-opacity:1;"/>
</linearGradient>
<linearGradient id="linear7" gradientUnits="userSpaceOnUse" x1="375.17" y1="419.78" x2="377.49" y2="324.04" gradientTransform="matrix(0.0606685,-0.0048114,0.0105706,0.133595,-13.597248,-15.346)">
<stop offset="0" style="stop-color:rgb(100%,93.333333%,84.313725%);stop-opacity:1;"/>
<stop offset="1" style="stop-color:rgb(74.117647%,74.901961%,76.078431%);stop-opacity:1;"/>
</linearGradient>
<linearGradient id="linear8" gradientUnits="userSpaceOnUse" x1="320.75" y1="498.18" x2="321.32" y2="614.5" gradientTransform="matrix(0.0940462,0,0,0.0759959,-9.455712,-14.520667)">
<stop offset="0" style="stop-color:rgb(100%,100%,100%);stop-opacity:0.8;"/>
<stop offset="1" style="stop-color:rgb(100%,100%,100%);stop-opacity:0;"/>
</linearGradient>
<linearGradient id="linear9" gradientUnits="userSpaceOnUse" x1="322.48" y1="435.27" x2="323.25" y2="488.48" gradientTransform="matrix(0.0858939,0,0,0.0660535,-6.728736,-10.955333)">
<stop offset="0" style="stop-color:rgb(100%,100%,100%);stop-opacity:0.65098;"/>
<stop offset="1" style="stop-color:rgb(100%,100%,100%);stop-opacity:0;"/>
</linearGradient>
<linearGradient id="linear10" gradientUnits="userSpaceOnUse" x1="0" y1="424.94" x2="0" y2="579.75" gradientTransform="matrix(0.084,0,0,0.0833333,-8.42016,-15.450667)">
<stop offset="0" style="stop-color:rgb(100%,100%,100%);stop-opacity:0.65098;"/>
<stop offset="1" style="stop-color:rgb(100%,100%,100%);stop-opacity:0;"/>
</linearGradient>
<linearGradient id="linear11" gradientUnits="userSpaceOnUse" x1="496.7" y1="409.9" x2="496.69" y2="549.78" gradientTransform="matrix(0.084,0,0,0.0833333,-8.42016,-15.450667)">
<stop offset="0" style="stop-color:rgb(100%,100%,100%);stop-opacity:0.65098;"/>
<stop offset="1" style="stop-color:rgb(100%,100%,100%);stop-opacity:0;"/>
</linearGradient>
<linearGradient id="linear12" gradientUnits="userSpaceOnUse" x1="238.97" y1="649.63" x2="214.96" y2="729.02" >
<stop offset="0" style="stop-color:rgb(100%,65.098039%,24.705882%);stop-opacity:1;"/>
<stop offset="1" style="stop-color:rgb(100%,100%,0%);stop-opacity:1;"/>
</linearGradient>
<linearGradient id="linear13" gradientUnits="userSpaceOnUse" x1="381.57" y1="655.73" x2="279.64" y2="386.67" gradientTransform="matrix(0.0428328,0.0190781,-0.0151126,0.038618,26.195904,5.080733)">
<stop offset="0" style="stop-color:rgb(100%,93.333333%,84.313725%);stop-opacity:1;"/>
<stop offset="1" style="stop-color:rgb(74.117647%,74.901961%,76.078431%);stop-opacity:1;"/>
</linearGradient>
<linearGradient id="linear14" gradientUnits="userSpaceOnUse" x1="220.27" y1="624.16" x2="205.13" y2="730.66" gradientTransform="matrix(1,-0.000000000000000056,-0.000000000000000056,1,0,0)">
<stop offset="0" style="stop-color:rgb(100%,65.098039%,24.705882%);stop-opacity:1;"/>
<stop offset="1" style="stop-color:rgb(100%,100%,0%);stop-opacity:1;"/>
</linearGradient>
<linearGradient id="linear15" gradientUnits="userSpaceOnUse" x1="118.8" y1="582.73" x2="183.65" y2="699.33" gradientTransform="matrix(-0.0635107,0.0229167,0.0284982,0.0637373,27.120576,-8.572667)">
<stop offset="0" style="stop-color:rgb(100%,100%,100%);stop-opacity:0.65098;"/>
<stop offset="1" style="stop-color:rgb(100%,100%,100%);stop-opacity:0;"/>
</linearGradient>
<linearGradient id="linear16" gradientUnits="userSpaceOnUse" x1="222.99" y1="570.7" x2="230.42" y2="711.33" gradientTransform="matrix(0.067489,-0.003486,-0.00116928,0.06972,-4.472899,-6.1812)">
<stop offset="0" style="stop-color:rgb(100%,100%,100%);stop-opacity:0.65098;"/>
<stop offset="1" style="stop-color:rgb(100%,100%,100%);stop-opacity:0;"/>
</linearGradient>
<linearGradient id="linear17" gradientUnits="userSpaceOnUse" x1="316.94" y1="474.02" x2="371.61" y2="582.64" gradientTransform="matrix(0.0251486,0.0106166,-0.0081271,0.0214905,27.805344,16.936)">
<stop offset="0" style="stop-color:rgb(100%,100%,100%);stop-opacity:0.65098;"/>
<stop offset="1" style="stop-color:rgb(100%,100%,100%);stop-opacity:0;"/>
</linearGradient>
<linearGradient id="linear18" gradientUnits="userSpaceOnUse" x1="284.69" y1="410.46" x2="285.46" y2="485.7" gradientTransform="matrix(1.2187,0,0,0.82056,-0.000000000000014211,-0.000000000000028422)">
<stop offset="0" style="stop-color:rgb(100%,65.098039%,24.705882%);stop-opacity:1;"/>
<stop offset="1" style="stop-color:rgb(100%,100%,0%);stop-opacity:1;"/>
</linearGradient>
<linearGradient id="linear19" gradientUnits="userSpaceOnUse" x1="288.82" y1="398.85" x2="288.38" y2="482.56" gradientTransform="matrix(0.0515571,0,0,0.0324986,5.484461,-0.829)">
<stop offset="0" style="stop-color:rgb(100%,100%,100%);stop-opacity:0.65098;"/>
<stop offset="1" style="stop-color:rgb(100%,100%,100%);stop-opacity:0;"/>
</linearGradient>
</defs>
<g id="surface1">
<path style=" stroke:none;fill-rule:nonzero;fill:url(#radial0);" d="M 40.425781 42.785156 C 40.472656 44.636719 36.78125 46.355469 30.75 47.285156 C 24.722656 48.214844 17.277344 48.214844 11.246094 47.285156 C 5.21875 46.355469 1.527344 44.636719 1.574219 42.785156 C 1.527344 40.933594 5.21875 39.214844 11.246094 38.285156 C 17.277344 37.355469 24.722656 37.355469 30.75 38.285156 C 36.78125 39.214844 40.472656 40.933594 40.425781 42.785156 Z M 40.425781 42.785156 "/>
<path style=" stroke:none;fill-rule:nonzero;fill:rgb(0%,0%,0%);fill-opacity:1;" d="M 10.363281 37.234375 C 8.484375 34.550781 8.117188 25.820312 12.503906 20.449219 C 14.679688 17.875 15.234375 16.078125 15.40625 13.667969 C 15.523438 10.917969 13.445312 2.714844 21.277344 2.089844 C 29.207031 1.460938 28.78125 9.226562 28.734375 13.335938 C 28.695312 16.808594 31.304688 18.773438 33.085938 21.480469 C 36.386719 26.449219 36.105469 35.003906 32.464844 39.632812 C 27.851562 45.433594 23.902344 42.917969 21.277344 43.128906 C 16.363281 43.394531 16.199219 45.996094 10.363281 37.238281 Z M 10.363281 37.234375 "/>
<path style=" stroke:none;fill-rule:nonzero;fill:url(#linear0);" d="M 29.519531 21.984375 C 30.882812 23.230469 34.425781 28.828125 28.820312 32.308594 C 26.847656 33.523438 30.582031 38.167969 32.378906 35.917969 C 35.542969 31.878906 33.523438 25.445312 31.625 23.140625 C 30.335938 21.503906 28.363281 20.871094 29.519531 21.984375 Z M 29.519531 21.984375 "/>
<path style="fill-rule:nonzero;fill:rgb(0%,0%,0%);fill-opacity:1;stroke-width:0.9773;stroke-linecap:butt;stroke-linejoin:miter;stroke:rgb(0%,0%,0%);stroke-opacity:1;stroke-miterlimit:4;" d="M 256.5248 459.847637 C 236.601091 477.575351 200.322616 539.949219 253.233057 580.442242 C 270.592671 593.093908 237.813839 632.894742 219.414726 612.552094 C 155.485608 541.718145 221.112573 460.270641 243.704326 432.275464 C 263.870585 407.933505 281.784598 438.043701 256.5248 459.847637 Z M 256.5248 459.847637 " transform="matrix(-0.112735,0,0,0.10158,58.052064,-25.488667)"/>
<path style=" stroke:none;fill-rule:nonzero;fill:url(#linear1);" d="M 25.90625 6.011719 C 25.824219 8.074219 23.535156 9.871094 20.792969 10.023438 C 18.050781 10.175781 15.890625 8.628906 15.96875 6.566406 C 16.050781 4.503906 18.339844 2.707031 21.082031 2.550781 C 23.824219 2.398438 25.984375 3.945312 25.90625 6.011719 Z M 25.90625 6.011719 "/>
<path style=" stroke:none;fill-rule:nonzero;fill:url(#linear2);" d="M 19.332031 10.917969 C 19.410156 12.261719 18.765625 13.386719 17.886719 13.4375 C 17.011719 13.488281 16.238281 12.441406 16.164062 11.101562 C 16.085938 9.761719 16.730469 8.632812 17.605469 8.582031 C 18.484375 8.53125 19.253906 9.578125 19.332031 10.917969 Z M 19.332031 10.917969 "/>
<path style=" stroke:none;fill-rule:nonzero;fill:url(#linear3);" d="M 20.925781 11.019531 C 20.957031 12.570312 21.96875 13.804688 23.183594 13.769531 C 24.398438 13.738281 25.359375 12.453125 25.328125 10.902344 C 25.296875 9.347656 24.285156 8.117188 23.066406 8.152344 C 21.851562 8.183594 20.894531 9.46875 20.925781 11.019531 Z M 20.925781 11.019531 "/>
<path style=" stroke:none;fill-rule:nonzero;fill:rgb(0%,0%,0%);fill-opacity:1;" d="M 21.929688 11.371094 C 21.914062 12.222656 22.347656 12.914062 22.898438 12.917969 C 23.449219 12.917969 23.914062 12.226562 23.933594 11.375 C 23.949219 10.523438 23.519531 9.832031 22.964844 9.832031 C 22.414062 9.832031 21.949219 10.519531 21.929688 11.371094 Z M 21.929688 11.371094 "/>
<path style=" stroke:none;fill-rule:nonzero;fill:rgb(0%,0%,0%);fill-opacity:1;" d="M 18.429688 11.378906 C 18.496094 12.085938 18.230469 12.695312 17.832031 12.746094 C 17.433594 12.792969 17.050781 12.261719 16.984375 11.554688 C 16.914062 10.851562 17.179688 10.238281 17.582031 10.191406 C 17.980469 10.144531 18.359375 10.675781 18.429688 11.378906 Z M 18.429688 11.378906 "/>
<path style=" stroke:none;fill-rule:nonzero;fill:url(#linear4);" d="M 22.160156 10.886719 C 22.113281 11.359375 22.335938 11.765625 22.660156 11.789062 C 22.980469 11.8125 23.28125 11.449219 23.328125 10.972656 C 23.375 10.496094 23.152344 10.09375 22.832031 10.070312 C 22.507812 10.042969 22.207031 10.410156 22.160156 10.886719 Z M 22.160156 10.886719 "/>
<path style=" stroke:none;fill-rule:nonzero;fill:url(#linear5);" d="M 18.089844 11.007812 C 18.132812 11.40625 17.972656 11.75 17.730469 11.777344 C 17.492188 11.804688 17.265625 11.503906 17.222656 11.105469 C 17.179688 10.707031 17.339844 10.363281 17.582031 10.335938 C 17.820312 10.308594 18.046875 10.609375 18.089844 11.007812 Z M 18.089844 11.007812 "/>
<path style=" stroke:none;fill-rule:nonzero;fill:url(#linear6);" d="M 13.3125 25.785156 C 14.390625 23.359375 16.679688 19.101562 16.730469 15.804688 C 16.730469 13.1875 24.640625 12.558594 25.273438 15.175781 C 25.910156 17.792969 27.519531 21.714844 28.546875 23.605469 C 29.574219 25.496094 32.5625 31.496094 29.378906 36.734375 C 26.507812 41.371094 17.808594 45.042969 13.164062 36.105469 C 11.601562 33.003906 11.878906 29.164062 13.3125 25.785156 Z M 13.3125 25.785156 "/>
<path style=" stroke:none;fill-rule:nonzero;fill:url(#linear7);" d="M 12.335938 23.984375 C 11.414062 25.714844 9.496094 30.265625 14.171875 32.753906 C 19.199219 35.398438 19.175781 40.835938 13.140625 38.25 C 7.621094 35.910156 10.058594 26.457031 11.601562 24.195312 C 12.613281 22.613281 14.132812 20.671875 12.335938 23.984375 Z M 12.335938 23.984375 "/>
<path style="fill-rule:nonzero;fill:rgb(0%,0%,0%);fill-opacity:1;stroke-width:1.25;stroke-linecap:butt;stroke-linejoin:miter;stroke:rgb(0%,0%,0%);stroke-opacity:1;stroke-miterlimit:4;" d="M 256.49 449.736125 C 239.051384 478.236125 197.152202 545.548625 253.234792 580.423625 C 328.802128 626.783 307.410759 673.142375 238.400342 631.423625 C 141.302128 573.158 226.588586 455.783 265.55808 411.06425 C 310.014926 360.861125 274.114628 420.158 256.49 449.736125 Z M 256.49 449.736125 " transform="matrix(0.084,0,0,0.0833333,-8.42016,-15.450667)"/>
<path style=" stroke:none;fill-rule:nonzero;fill:url(#linear8);" d="M 27.425781 26.707031 C 27.425781 29.351562 24.863281 32.792969 20.464844 32.761719 C 15.929688 32.796875 13.996094 29.351562 13.996094 26.707031 C 13.996094 24.058594 17.003906 21.910156 20.710938 21.910156 C 24.417969 21.910156 27.425781 24.058594 27.425781 26.707031 Z M 27.425781 26.707031 "/>
<path style=" stroke:none;fill-rule:nonzero;fill:url(#linear9);" d="M 25.03125 18.375 C 24.984375 21.117188 23.183594 21.765625 20.90625 21.765625 C 18.628906 21.765625 16.972656 21.359375 16.777344 18.375 C 16.777344 16.503906 18.628906 15.417969 20.90625 15.417969 C 23.183594 15.417969 25.03125 16.503906 25.03125 18.375 Z M 25.03125 18.375 "/>
<path style=" stroke:none;fill-rule:nonzero;fill:url(#linear10);" d="M 11.257812 22.589844 C 12.746094 20.339844 15.878906 16.890625 11.84375 23.074219 C 8.574219 28.160156 10.636719 31.429688 11.699219 32.328125 C 14.765625 35.039062 14.636719 36.855469 12.234375 35.425781 C 7.058594 32.375 8.132812 27.242188 11.257812 22.589844 Z M 11.257812 22.589844 "/>
<path style=" stroke:none;fill-rule:nonzero;fill:url(#linear11);" d="M 32.796875 23.507812 C 31.507812 20.867188 27.40625 14.183594 32.992188 21.960938 C 38.070312 28.984375 34.503906 33.875 33.871094 34.363281 C 33.234375 34.847656 31.085938 35.816406 31.722656 34.121094 C 32.355469 32.421875 35.519531 29.203125 32.796875 23.507812 Z M 32.796875 23.507812 "/>
<path style="fill-rule:nonzero;fill:url(#linear12);stroke-width:6.25;stroke-linecap:butt;stroke-linejoin:miter;stroke:rgb(90.196078%,54.901961%,24.705882%);stroke-opacity:1;stroke-miterlimit:4;" d="M 220.915223 716.923625 C 180.457634 695.50175 121.677872 721.048625 143.022738 662.87675 C 147.301012 649.611125 136.65183 629.829875 143.580774 616.93925 C 151.718795 601.236125 169.157411 604.704875 179.667083 594.25175 C 189.944241 583.37675 196.501161 564.62675 215.70689 567.533 C 234.866116 570.43925 247.654435 593.9705 261.047292 622.75175 C 270.905923 643.37675 305.969167 672.392375 303.690521 695.50175 C 300.993348 730.986125 260.675268 737.68925 220.915223 716.923625 Z M 220.915223 716.923625 " transform="matrix(0.084,0,0,0.0833333,-8.42016,-15.450667)"/>
<path style=" stroke:none;fill-rule:nonzero;fill:url(#linear13);" d="M 34.898438 32.910156 C 34.375 33.882812 32.226562 35.421875 30.792969 35.023438 C 29.328125 34.628906 28.667969 32.429688 28.957031 30.769531 C 29.222656 28.894531 30.792969 28.800781 32.757812 29.726562 C 34.875 30.75 35.515625 31.625 34.898438 32.910156 Z M 34.898438 32.910156 "/>
<path style="fill-rule:nonzero;fill:url(#linear14);stroke-width:6.2507;stroke-linecap:butt;stroke-linejoin:miter;stroke:rgb(90.196078%,54.901961%,24.705882%);stroke-opacity:1;stroke-miterlimit:4;" d="M 220.262076 718.391456 C 178.936672 694.820907 120.362842 723.99686 143.001033 662.853531 C 147.72734 649.767957 136.409566 629.280885 143.356123 616.394829 C 151.501912 600.70885 169.148234 604.71129 179.624418 594.26549 C 189.965678 583.365667 198.481614 566.388239 217.665533 569.278771 C 236.806109 572.185048 247.605882 593.966977 261.005557 622.752416 C 270.898277 643.405045 304.449356 671.711334 302.143315 694.783291 C 299.43716 730.325006 259.413705 740.286796 220.262076 718.391456 Z M 220.262076 718.391456 " transform="matrix(-0.0785232,0.0282093,0.0319388,0.0776533,28.062048,-18.538)"/>
<path style=" stroke:none;fill-rule:nonzero;fill:url(#linear15);" d="M 32.628906 39.453125 C 36.484375 33.804688 33.609375 33.847656 32.648438 33.421875 C 31.679688 32.960938 30.65625 32.074219 29.519531 32.699219 C 28.386719 33.324219 28.320312 34.960938 28.289062 37.101562 C 28.25 38.644531 26.949219 41.207031 27.730469 42.636719 C 28.671875 44.304688 30.949219 41.882812 32.628906 39.453125 Z M 32.628906 39.453125 "/>
<path style=" stroke:none;fill-rule:nonzero;fill:url(#linear16);" d="M 9.347656 40.269531 C 3.574219 36.5625 6.273438 35.304688 7.152344 34.722656 C 8.203125 33.972656 8.210938 32.519531 9.5 32.652344 C 10.792969 32.789062 11.546875 34.367188 12.414062 36.328125 C 13.058594 37.730469 15.265625 39.585938 15.105469 41.207031 C 14.898438 43.105469 11.847656 41.855469 9.347656 40.269531 Z M 9.347656 40.269531 "/>
<path style=" stroke:none;fill-rule:nonzero;fill:rgb(0%,0%,0%);fill-opacity:1;" d="M 34.550781 32.859375 C 34.101562 33.636719 32.246094 34.871094 31.011719 34.550781 C 29.75 34.234375 29.183594 32.472656 29.429688 31.140625 C 29.660156 29.640625 31.011719 29.566406 32.707031 30.304688 C 34.53125 31.125 35.082031 31.828125 34.550781 32.859375 Z M 34.550781 32.859375 "/>
<path style=" stroke:none;fill-rule:nonzero;fill:url(#linear17);" d="M 33.308594 32.421875 C 33.023438 32.964844 31.800781 33.820312 30.960938 33.597656 C 30.109375 33.378906 29.6875 32.15625 29.828125 31.230469 C 29.953125 30.1875 30.859375 30.136719 32.015625 30.652344 C 33.261719 31.21875 33.644531 31.707031 33.308594 32.421875 Z M 33.308594 32.421875 "/>
<path style="fill-rule:nonzero;fill:url(#linear18);stroke-width:3.75;stroke-linecap:butt;stroke-linejoin:miter;stroke:rgb(90.196078%,54.901961%,24.705882%);stroke-opacity:1;stroke-miterlimit:4;" d="M 309.968423 338.736125 C 317.083378 331.93925 334.754509 311.642375 367.911131 332.9705 C 374.096027 337.00175 379.071845 337.329875 390.930104 342.43925 C 414.646622 352.18925 403.299896 375.673625 378.188289 383.548625 C 367.446101 387.017375 357.633973 400.0955 338.05622 398.9705 C 321.315149 397.986125 316.943869 387.111125 306.666711 381.06425 C 288.391042 370.75175 285.693869 356.829875 295.5525 349.423625 C 305.411131 342.017375 309.270878 339.3455 309.968423 338.736125 Z M 309.968423 338.736125 " transform="matrix(0.084,0,0,0.0833333,-8.42016,-15.450667)"/>
<path style="fill:none;stroke-width:2.5;stroke-linecap:butt;stroke-linejoin:miter;stroke:rgb(90.196078%,54.901961%,24.705882%);stroke-opacity:1;stroke-miterlimit:4;" d="M 391.255625 357.62675 C 381.350491 358.236125 359.866116 379.75175 337.172664 379.75175 C 314.525714 379.75175 301.132857 358.798625 297.645134 358.798625 " transform="matrix(0.084,0,0,0.0833333,-8.42016,-15.450667)"/>
<path style=" stroke:none;fill-rule:nonzero;fill:url(#linear19);" d="M 18.5625 12.621094 C 18.863281 12.355469 19.816406 11.617188 21.078125 12.371094 C 21.34375 12.519531 21.617188 12.683594 22.023438 12.90625 C 22.832031 13.371094 22.433594 14.042969 21.464844 14.46875 C 21.023438 14.648438 20.300781 15.042969 19.75 15.015625 C 19.136719 14.960938 18.738281 14.5625 18.332031 14.304688 C 17.585938 13.816406 17.632812 13.421875 17.976562 13.09375 C 18.238281 12.867188 18.535156 12.648438 18.5625 12.621094 Z M 18.5625 12.621094 "/>
</g>
</svg>
