<?xml version="1.0" encoding="UTF-8"?>
<svg xmlns="http://www.w3.org/2000/svg" xmlns:xlink="http://www.w3.org/1999/xlink" width="42pt" height="49pt" viewBox="0 0 42 49" version="1.1">
<g id="surface1">
<path style=" stroke:none;fill-rule:evenodd;fill:rgb(11.764706%,44.313725%,72.156863%);fill-opacity:1;" d="M 38.660156 42.871094 C 37.746094 44.351562 36.828125 45.460938 35.726562 46.492188 C 34.484375 47.574219 34.136719 48.527344 31.28125 48.898438 C 29.261719 49.265625 27.511719 48.527344 26.835938 48.238281 C 24.816406 47.3125 23.765625 47.019531 22.554688 47.019531 C 21.371094 47.019531 20.375 47.3125 18.382812 48.210938 C 17.761719 48.527344 16.09375 49.242188 14.046875 48.871094 C 11.945312 48.5 10.867188 47.707031 10.085938 47.046875 C 8.46875 45.644531 7.257812 44.324219 6.152344 42.792969 Z M 38.660156 42.871094 "/>
<path style=" stroke:none;fill-rule:evenodd;fill:rgb(43.529412%,70.196078%,32.54902%);fill-opacity:1;" d="M 1.601562 18.210938 C 2.546875 16.125 3.785156 14.722656 5.023438 13.746094 C 8.175781 11.207031 13.320312 11.050781 15.6875 11.65625 C 17.628906 12.132812 19 13.296875 21.183594 13.296875 C 23.472656 13.296875 24.789062 12.160156 26.59375 11.65625 C 28.964844 11.074219 34.136719 11.261719 37.503906 13.796875 C 38.5 14.539062 39.414062 15.542969 39.925781 16.097656 C 38.714844 16.96875 37.988281 17.605469 37.394531 18.210938 Z M 1.601562 18.210938 "/>
<path style=" stroke:none;fill-rule:evenodd;fill:rgb(100%,94.901961%,17.647059%);fill-opacity:1;" d="M 37.394531 18.210938 C 36.828125 18.820312 36.425781 19.402344 35.96875 20.21875 C 35.429688 21.171875 34.78125 22.46875 34.621094 24.421875 L 0.015625 24.421875 C 0.0429688 24.105469 0.0664062 23.761719 0.121094 23.417969 C 0.445312 21.332031 0.957031 19.613281 1.601562 18.210938 Z M 37.394531 18.210938 "/>
<path style=" stroke:none;fill-rule:evenodd;fill:rgb(87.843137%,57.254902%,18.431373%);fill-opacity:1;" d="M 34.621094 24.421875 C 34.59375 25.023438 34.59375 25.621094 34.621094 26.21875 C 34.703125 27.671875 35.214844 29.285156 35.886719 30.582031 L 0.6875 30.5 C 0.203125 28.414062 -0.0664062 26.273438 0.015625 24.421875 Z M 34.621094 24.421875 "/>
<path style=" stroke:none;fill-rule:evenodd;fill:rgb(80%,13.333333%,16.078431%);fill-opacity:1;" d="M 35.886719 30.582031 C 36.164062 31.140625 36.496094 31.671875 36.882812 32.167969 C 39.199219 35.074219 40.195312 35.074219 42 35.972656 C 41.867188 36.289062 41.757812 36.582031 41.621094 36.84375 L 2.734375 36.765625 C 1.980469 35.152344 1.199219 32.878906 0.6875 30.5 Z M 35.886719 30.582031 "/>
<path style=" stroke:none;fill-rule:evenodd;fill:rgb(35.294118%,18.823529%,55.294118%);fill-opacity:1;" d="M 41.621094 36.84375 C 40.492188 39.433594 39.574219 41.339844 38.660156 42.871094 L 6.15625 42.792969 C 5.078125 41.234375 4.109375 39.515625 3.003906 37.375 C 2.921875 37.1875 2.816406 36.976562 2.734375 36.765625 Z M 41.621094 36.84375 "/>
<path style=" stroke:none;fill-rule:evenodd;fill:rgb(43.529412%,70.196078%,32.54902%);fill-opacity:1;" d="M 30.339844 3.753906 C 30.148438 5.074219 29.476562 6.765625 28.398438 7.851562 C 27.242188 9.066406 25.4375 10.386719 24.359375 11.050781 C 23.765625 11.417969 22.230469 11.472656 20.964844 11.605469 C 20.804688 10.492188 20.777344 9.542969 21.128906 8.511719 C 21.585938 7.296875 22.179688 5.550781 23.121094 4.335938 C 24.277344 2.828125 25.597656 1.796875 26.324219 1.429688 C 27.296875 0.953125 28.910156 0.238281 30.3125 0 C 30.367188 1.214844 30.554688 2.589844 30.339844 3.753906 Z M 30.339844 3.753906 "/>
</g>
</svg>
