<?xml version="1.0" encoding="UTF-8"?>
<svg xmlns="http://www.w3.org/2000/svg" xmlns:xlink="http://www.w3.org/1999/xlink" width="50pt" height="9pt" viewBox="0 0 50 9" version="1.1">
<g id="surface1">
<path style=" stroke:none;fill-rule:nonzero;fill:rgb(15.294118%,21.960784%,49.019608%);fill-opacity:1;" d="M 8.886719 0.0664062 L 8.886719 0.0585938 L 8.605469 0.0585938 C 8.59375 0.0585938 8.585938 0.0585938 8.574219 0.0585938 L 2.910156 0.0585938 C 0.96875 0.0585938 0 0.808594 0 2.304688 L 0 6.429688 C 0 7.917969 0.96875 8.664062 2.910156 8.664062 L 8.582031 8.664062 L 8.582031 8.660156 C 10.515625 8.660156 11.480469 7.914062 11.480469 6.429688 L 11.480469 2.304688 C 11.480469 0.890625 10.617188 0.144531 8.886719 0.0664062 Z M 8.265625 6.570312 L 3.5625 6.570312 L 3.5625 2.105469 L 8.265625 2.105469 Z M 37.355469 8.632812 L 33.976562 8.632812 L 33.976562 6.378906 L 29.253906 6.378906 L 29.253906 8.632812 L 25.878906 8.632812 L 25.878906 2.007812 C 25.878906 1.445312 26.101562 0.996094 26.546875 0.660156 C 26.980469 0.332031 27.605469 0.171875 28.414062 0.171875 L 34.835938 0.171875 C 35.644531 0.171875 36.265625 0.332031 36.699219 0.660156 C 37.136719 0.984375 37.355469 1.4375 37.355469 2.007812 Z M 33.976562 4.820312 L 33.976562 2.371094 L 29.253906 2.371094 L 29.253906 4.820312 Z M 49.457031 0.59375 C 49.117188 0.335938 48.589844 0.199219 47.886719 0.175781 L 47.898438 0.171875 L 47.769531 0.171875 C 47.738281 0.171875 47.714844 0.171875 47.683594 0.171875 L 41.476562 0.171875 C 40.667969 0.171875 40.046875 0.332031 39.613281 0.660156 C 39.175781 0.984375 38.957031 1.421875 38.945312 1.96875 L 38.945312 1.988281 C 38.945312 2 38.941406 2.003906 38.941406 2.011719 L 38.945312 2.011719 L 38.945312 8.632812 L 42.320312 8.632812 L 42.320312 6.421875 L 47.777344 6.421875 C 49.257812 6.421875 50 5.855469 50 4.710938 L 50 2 C 50 1.347656 49.820312 0.878906 49.457031 0.59375 Z M 46.566406 4.566406 L 42.273438 4.566406 L 42.273438 2.371094 L 46.566406 2.371094 Z M 21.636719 0.171875 L 21.132812 0.171875 L 21.132812 5.09375 C 21.109375 5.144531 21.0625 5.183594 20.960938 5.167969 C 20.960938 5.167969 20.894531 5.152344 20.847656 5.105469 C 20.277344 4.261719 18.082031 1.375 17.382812 0.457031 C 17.378906 0.453125 17.375 0.449219 17.371094 0.445312 L 17.375 0.445312 C 17.363281 0.4375 17.351562 0.425781 17.339844 0.417969 C 17.335938 0.410156 17.328125 0.402344 17.324219 0.402344 C 17.144531 0.246094 16.910156 0.171875 16.597656 0.171875 L 13.871094 0.171875 C 13.527344 0.171875 13.265625 0.265625 13.082031 0.449219 C 12.894531 0.632812 12.804688 0.882812 12.800781 1.191406 L 12.792969 1.195312 L 12.792969 8.632812 L 15.984375 8.632812 C 15.984375 8.632812 15.964844 4.703125 15.957031 3.546875 C 15.96875 3.46875 16.027344 3.355469 16.273438 3.386719 C 16.273438 3.386719 16.363281 3.390625 16.40625 3.460938 C 17.019531 4.402344 21.050781 8.632812 21.050781 8.632812 L 24.363281 8.632812 L 24.363281 0.171875 Z M 21.636719 0.171875 "/>
<path style="fill-rule:nonzero;fill:rgb(92.54902%,15.294118%,15.294118%);fill-opacity:1;stroke-width:1.433;stroke-linecap:butt;stroke-linejoin:miter;stroke:rgb(100%,100%,100%);stroke-opacity:1;stroke-miterlimit:4;" d="M 81.057838 72.527568 C 81.057838 72.527568 124.97312 97.741926 134.09214 117.742977 L 168.264469 117.742977 C 165.432773 111.025832 149.162521 81.149575 81.057838 72.527568 Z M 81.057838 72.527568 " transform="matrix(0.081389,0,0,0.0779256,-1.171431,-0.233785)"/>
</g>
</svg>
