<?xml version="1.0" encoding="UTF-8"?>
<svg xmlns="http://www.w3.org/2000/svg" xmlns:xlink="http://www.w3.org/1999/xlink" width="50pt" height="13pt" viewBox="0 0 50 13" version="1.1">
<g id="surface1">
<path style=" stroke:none;fill-rule:nonzero;fill:rgb(29.019608%,31.764706%,34.509804%);fill-opacity:1;" d="M 0 6.859375 L 1.742188 6.699219 C 1.847656 7.28125 2.0625 7.710938 2.382812 7.984375 C 2.703125 8.257812 3.136719 8.394531 3.6875 8.390625 C 4.265625 8.390625 4.703125 8.269531 4.996094 8.027344 C 5.292969 7.785156 5.433594 7.496094 5.433594 7.175781 C 5.441406 6.980469 5.378906 6.789062 5.253906 6.636719 C 5.128906 6.492188 4.917969 6.359375 4.609375 6.257812 C 4.398438 6.175781 3.917969 6.050781 3.175781 5.859375 C 2.207031 5.625 1.539062 5.332031 1.148438 4.984375 C 0.625 4.535156 0.324219 3.878906 0.332031 3.1875 C 0.328125 2.738281 0.460938 2.292969 0.714844 1.917969 C 0.988281 1.511719 1.375 1.195312 1.828125 1.011719 C 2.3125 0.8125 2.894531 0.707031 3.582031 0.707031 C 4.699219 0.707031 5.539062 0.953125 6.105469 1.441406 C 6.667969 1.941406 6.964844 2.59375 6.992188 3.414062 L 5.1875 3.472656 C 5.109375 3.023438 4.949219 2.695312 4.691406 2.496094 C 4.4375 2.292969 4.058594 2.195312 3.5625 2.195312 C 3.039062 2.195312 2.632812 2.300781 2.339844 2.519531 C 2.15625 2.640625 2.046875 2.84375 2.050781 3.0625 C 2.050781 3.273438 2.148438 3.476562 2.320312 3.605469 C 2.542969 3.796875 3.09375 3.996094 3.96875 4.199219 C 4.839844 4.402344 5.488281 4.621094 5.902344 4.839844 C 6.308594 5.050781 6.648438 5.363281 6.886719 5.75 C 7.121094 6.125 7.242188 6.605469 7.242188 7.171875 C 7.242188 7.679688 7.09375 8.175781 6.816406 8.601562 C 6.527344 9.050781 6.109375 9.398438 5.613281 9.597656 C 5.09375 9.808594 4.449219 9.921875 3.675781 9.921875 C 2.550781 9.921875 1.683594 9.660156 1.078125 9.136719 C 0.472656 8.613281 0.117188 7.855469 0 6.859375 Z M 0 6.859375 "/>
<path style=" stroke:none;fill-rule:nonzero;fill:rgb(29.019608%,31.764706%,34.509804%);fill-opacity:1;" d="M 7.015625 3.308594 L 8.824219 3.308594 L 10.371094 7.886719 L 11.875 3.308594 L 13.636719 3.308594 L 11.375 9.507812 L 10.960938 10.640625 C 10.847656 10.941406 10.707031 11.230469 10.535156 11.5 C 10.410156 11.691406 10.253906 11.855469 10.066406 11.984375 C 9.867188 12.117188 9.648438 12.210938 9.417969 12.273438 C 9.136719 12.347656 8.839844 12.382812 8.546875 12.382812 C 8.222656 12.378906 7.898438 12.34375 7.578125 12.273438 L 7.4375 10.933594 C 7.675781 10.988281 7.917969 11.015625 8.164062 11.015625 C 8.554688 11.015625 8.847656 10.902344 9.039062 10.671875 C 9.242188 10.40625 9.390625 10.101562 9.472656 9.773438 Z M 19.566406 9.757812 L 17.863281 9.757812 L 17.863281 6.476562 C 17.863281 5.785156 17.828125 5.335938 17.753906 5.132812 C 17.6875 4.9375 17.5625 4.773438 17.390625 4.65625 C 17.214844 4.539062 17.007812 4.480469 16.792969 4.488281 C 16.507812 4.484375 16.226562 4.570312 15.988281 4.730469 C 15.757812 4.882812 15.585938 5.105469 15.5 5.367188 C 15.410156 5.636719 15.371094 6.125 15.371094 6.847656 L 15.371094 9.757812 L 13.675781 9.757812 L 13.675781 3.308594 L 15.25 3.308594 L 15.25 4.253906 C 15.816406 3.539062 16.527344 3.1875 17.382812 3.1875 C 17.742188 3.183594 18.09375 3.25 18.425781 3.386719 C 18.703125 3.496094 18.945312 3.671875 19.136719 3.90625 C 19.296875 4.117188 19.410156 4.359375 19.46875 4.617188 C 19.542969 4.996094 19.578125 5.378906 19.566406 5.765625 Z M 19.578125 6.464844 C 19.578125 5.890625 19.722656 5.324219 19.996094 4.816406 C 20.265625 4.304688 20.679688 3.878906 21.1875 3.605469 C 21.71875 3.320312 22.308594 3.179688 22.90625 3.1875 C 23.890625 3.1875 24.691406 3.503906 25.316406 4.136719 C 25.9375 4.769531 26.25 5.570312 26.253906 6.535156 C 26.253906 7.511719 25.9375 8.316406 25.304688 8.960938 C 24.675781 9.605469 23.878906 9.925781 22.917969 9.925781 C 22.328125 9.925781 21.746094 9.785156 21.222656 9.523438 C 20.695312 9.269531 20.265625 8.855469 19.992188 8.34375 C 19.714844 7.832031 19.578125 7.203125 19.578125 6.464844 Z M 21.320312 6.554688 C 21.320312 7.199219 21.46875 7.691406 21.777344 8.023438 C 22.0625 8.351562 22.476562 8.539062 22.910156 8.539062 C 23.34375 8.539062 23.757812 8.351562 24.039062 8.023438 C 24.339844 7.691406 24.492188 7.191406 24.492188 6.546875 C 24.492188 5.902344 24.339844 5.421875 24.039062 5.085938 C 23.753906 4.761719 23.34375 4.574219 22.910156 4.574219 C 22.476562 4.574219 22.0625 4.761719 21.777344 5.085938 C 21.472656 5.417969 21.320312 5.910156 21.320312 6.550781 Z M 21.320312 6.554688 "/>
<path style=" stroke:none;fill-rule:nonzero;fill:rgb(29.019608%,31.764706%,34.509804%);fill-opacity:1;" d="M 28.347656 0.00390625 L 28.347656 8.328125 C 28.347656 8.726562 28.378906 8.988281 28.433594 9.113281 C 28.488281 9.238281 28.582031 9.34375 28.699219 9.410156 C 28.820312 9.476562 29.042969 9.507812 29.363281 9.507812 L 29.363281 9.757812 L 26.273438 9.757812 L 26.273438 9.507812 C 26.5625 9.507812 26.761719 9.480469 26.871094 9.417969 C 26.984375 9.347656 27.070312 9.246094 27.117188 9.125 C 27.179688 8.988281 27.207031 8.722656 27.207031 8.332031 L 27.207031 2.648438 C 27.207031 1.933594 27.195312 1.496094 27.164062 1.328125 C 27.152344 1.203125 27.097656 1.085938 27.011719 0.992188 C 26.9375 0.929688 26.84375 0.898438 26.746094 0.902344 C 26.59375 0.914062 26.445312 0.953125 26.304688 1.015625 L 26.1875 0.769531 L 28.039062 0.00390625 Z M 32.433594 3.289062 C 33.390625 3.289062 34.160156 3.648438 34.738281 4.367188 C 35.226562 4.96875 35.488281 5.71875 35.476562 6.492188 C 35.472656 7.082031 35.332031 7.664062 35.070312 8.195312 C 34.605469 9.269531 33.535156 9.957031 32.359375 9.9375 C 31.402344 9.9375 30.644531 9.558594 30.085938 8.808594 C 29.617188 8.191406 29.367188 7.4375 29.375 6.667969 C 29.378906 6.070312 29.527344 5.484375 29.804688 4.957031 C 30.054688 4.433594 30.449219 3.996094 30.945312 3.695312 C 31.394531 3.429688 31.910156 3.289062 32.433594 3.289062 Z M 32.222656 3.75 C 31.960938 3.75 31.707031 3.824219 31.488281 3.964844 C 31.242188 4.109375 31.042969 4.355469 30.890625 4.714844 C 30.738281 5.070312 30.664062 5.535156 30.664062 6.101562 C 30.664062 7.011719 30.847656 7.792969 31.210938 8.457031 C 31.574219 9.125 32.058594 9.449219 32.652344 9.449219 C 33.089844 9.453125 33.5 9.25 33.753906 8.902344 C 34.046875 8.535156 34.191406 7.910156 34.191406 7.019531 C 34.191406 5.90625 33.949219 5.039062 33.46875 4.394531 C 33.140625 3.964844 32.726562 3.75 32.222656 3.75 Z M 32.222656 3.75 "/>
<path style=" stroke:none;fill-rule:nonzero;fill:rgb(29.019608%,31.764706%,34.509804%);fill-opacity:1;" d="M 36.859375 7.457031 C 36.226562 7.140625 35.792969 6.535156 35.695312 5.835938 C 35.597656 5.140625 35.851562 4.441406 36.371094 3.964844 C 36.839844 3.515625 37.445312 3.292969 38.179688 3.292969 C 38.730469 3.277344 39.273438 3.425781 39.738281 3.726562 L 41.066406 3.726562 C 41.179688 3.71875 41.296875 3.726562 41.410156 3.742188 C 41.4375 3.757812 41.460938 3.777344 41.480469 3.800781 C 41.511719 3.871094 41.523438 3.945312 41.519531 4.019531 C 41.527344 4.105469 41.515625 4.191406 41.484375 4.269531 C 41.46875 4.296875 41.441406 4.316406 41.410156 4.324219 C 41.296875 4.34375 41.179688 4.347656 41.0625 4.34375 L 40.242188 4.34375 C 40.5 4.671875 40.628906 5.09375 40.628906 5.609375 C 40.632812 6.183594 40.386719 6.730469 39.957031 7.109375 C 39.503906 7.527344 38.902344 7.738281 38.152344 7.738281 C 37.828125 7.738281 37.503906 7.691406 37.195312 7.59375 C 37.042969 7.722656 36.914062 7.875 36.8125 8.042969 C 36.753906 8.144531 36.714844 8.257812 36.707031 8.375 C 36.710938 8.464844 36.753906 8.550781 36.820312 8.609375 C 36.894531 8.679688 37.046875 8.734375 37.265625 8.761719 C 37.585938 8.796875 37.90625 8.816406 38.226562 8.816406 C 39.167969 8.847656 39.78125 8.882812 40.054688 8.929688 C 40.441406 8.96875 40.800781 9.136719 41.078125 9.398438 C 41.332031 9.644531 41.46875 9.984375 41.460938 10.335938 C 41.460938 10.84375 41.214844 11.324219 40.730469 11.777344 C 40.023438 12.4375 39.09375 12.765625 37.941406 12.765625 C 37.0625 12.765625 36.316406 12.574219 35.707031 12.175781 C 35.363281 11.945312 35.195312 11.710938 35.195312 11.464844 C 35.195312 11.351562 35.21875 11.238281 35.265625 11.136719 C 35.394531 10.886719 35.554688 10.652344 35.738281 10.4375 C 35.765625 10.394531 36 10.148438 36.425781 9.703125 C 36.238281 9.597656 36.070312 9.46875 35.921875 9.3125 C 35.828125 9.210938 35.773438 9.074219 35.773438 8.933594 C 35.785156 8.730469 35.851562 8.535156 35.964844 8.371094 C 36.097656 8.152344 36.394531 7.84375 36.859375 7.457031 Z M 36.804688 9.757812 C 36.617188 9.953125 36.460938 10.171875 36.328125 10.40625 C 36.230469 10.570312 36.175781 10.753906 36.167969 10.945312 C 36.167969 11.171875 36.300781 11.359375 36.566406 11.523438 C 37.023438 11.800781 37.6875 11.945312 38.554688 11.945312 C 39.378906 11.945312 39.984375 11.800781 40.378906 11.511719 C 40.773438 11.222656 40.964844 10.921875 40.964844 10.59375 C 40.96875 10.371094 40.828125 10.167969 40.613281 10.09375 C 40.375 9.992188 39.902344 9.933594 39.191406 9.921875 C 38.15625 9.890625 37.355469 9.832031 36.804688 9.757812 Z M 38.0625 3.636719 C 37.730469 3.632812 37.417969 3.785156 37.210938 4.042969 C 36.984375 4.3125 36.871094 4.714844 36.871094 5.269531 C 36.871094 5.984375 37.027344 6.539062 37.335938 6.9375 C 37.546875 7.222656 37.882812 7.390625 38.242188 7.386719 C 38.570312 7.394531 38.886719 7.25 39.09375 6.996094 C 39.320312 6.738281 39.429688 6.332031 39.429688 5.785156 C 39.429688 5.0625 39.273438 4.496094 38.960938 4.089844 C 38.753906 3.800781 38.417969 3.632812 38.0625 3.632812 Z M 41.71875 3.472656 L 44.667969 3.472656 L 44.667969 3.722656 L 44.527344 3.722656 C 44.359375 3.710938 44.195312 3.757812 44.058594 3.855469 C 43.960938 3.9375 43.90625 4.058594 43.90625 4.1875 C 43.90625 4.367188 43.980469 4.613281 44.132812 4.929688 L 45.671875 8.105469 L 47.082031 4.632812 C 47.15625 4.457031 47.195312 4.265625 47.199219 4.070312 C 47.199219 4.007812 47.183594 3.945312 47.148438 3.890625 C 47.105469 3.835938 47.042969 3.792969 46.976562 3.769531 C 46.84375 3.730469 46.703125 3.714844 46.566406 3.722656 L 46.566406 3.472656 L 48.605469 3.472656 L 48.605469 3.722656 C 48.46875 3.730469 48.332031 3.769531 48.210938 3.832031 C 48.089844 3.914062 47.988281 4.015625 47.90625 4.136719 C 47.816406 4.304688 47.738281 4.480469 47.671875 4.664062 L 45.113281 10.925781 C 44.863281 11.535156 44.539062 11.992188 44.136719 12.304688 C 43.730469 12.613281 43.34375 12.765625 42.96875 12.765625 C 42.722656 12.777344 42.480469 12.695312 42.296875 12.535156 C 42.132812 12.402344 42.035156 12.207031 42.035156 12 C 42.027344 11.828125 42.097656 11.660156 42.222656 11.542969 C 42.367188 11.417969 42.558594 11.355469 42.75 11.367188 C 42.964844 11.382812 43.175781 11.429688 43.375 11.515625 C 43.484375 11.558594 43.601562 11.59375 43.722656 11.617188 C 43.859375 11.617188 44.007812 11.542969 44.175781 11.402344 C 44.339844 11.261719 44.5 10.988281 44.667969 10.585938 L 45.113281 9.492188 L 42.839844 4.769531 C 42.746094 4.582031 42.636719 4.40625 42.511719 4.238281 C 42.433594 4.121094 42.335938 4.011719 42.230469 3.914062 C 42.070312 3.824219 41.898438 3.757812 41.71875 3.722656 Z M 48.59375 3.054688 L 48.59375 1.792969 L 49.148438 1.792969 C 49.234375 1.789062 49.324219 1.804688 49.40625 1.835938 C 49.460938 1.855469 49.511719 1.894531 49.542969 1.949219 C 49.578125 2.003906 49.59375 2.070312 49.59375 2.136719 C 49.597656 2.222656 49.566406 2.304688 49.503906 2.363281 C 49.433594 2.433594 49.339844 2.476562 49.238281 2.484375 C 49.273438 2.5 49.308594 2.519531 49.339844 2.542969 C 49.390625 2.59375 49.4375 2.648438 49.476562 2.710938 L 49.695312 3.054688 L 49.488281 3.054688 L 49.324219 2.792969 C 49.277344 2.722656 49.234375 2.660156 49.203125 2.621094 C 49.179688 2.589844 49.152344 2.558594 49.121094 2.53125 C 49.097656 2.519531 49.070312 2.507812 49.042969 2.503906 C 49.015625 2.496094 48.984375 2.492188 48.953125 2.496094 L 48.765625 2.496094 L 48.765625 3.054688 Z M 48.761719 2.355469 L 49.117188 2.355469 C 49.175781 2.359375 49.238281 2.351562 49.296875 2.328125 C 49.335938 2.316406 49.367188 2.289062 49.386719 2.253906 C 49.410156 2.21875 49.421875 2.179688 49.421875 2.136719 C 49.421875 2.082031 49.398438 2.03125 49.355469 1.992188 C 49.296875 1.953125 49.226562 1.929688 49.152344 1.9375 L 48.753906 1.9375 Z M 48.761719 2.355469 "/>
<path style="fill:none;stroke-width:1;stroke-linecap:butt;stroke-linejoin:miter;stroke:rgb(28.627451%,31.372549%,34.117647%);stroke-opacity:1;stroke-miterlimit:4;" d="M 552.78 26.395722 C 552.78 31.992421 548.245477 36.504487 542.674491 36.504487 C 537.060319 36.504487 532.568981 31.949035 532.568981 26.395722 C 532.568981 20.799024 537.103505 16.286957 542.674491 16.286957 C 548.245477 16.330343 552.736814 20.842409 552.78 26.395722 Z M 552.78 26.395722 " transform="matrix(0.0904519,0,0,0.0900363,0,0.00233188)"/>
</g>
</svg>
