<?xml version="1.0" encoding="UTF-8"?>
<svg xmlns="http://www.w3.org/2000/svg" xmlns:xlink="http://www.w3.org/1999/xlink" width="50pt" height="7pt" viewBox="0 0 50 7" version="1.1">
<g id="surface1">
<path style=" stroke:none;fill-rule:nonzero;fill:rgb(44.313725%,43.921569%,45.098039%);fill-opacity:1;" d="M 21.496094 6.472656 L 19.3125 0.875 C 19.285156 0.800781 19.246094 0.691406 19.246094 0.601562 C 19.246094 0.359375 19.46875 0.128906 19.792969 0.128906 C 20.070312 0.128906 20.253906 0.296875 20.335938 0.535156 L 22.140625 5.355469 L 23.964844 0.519531 C 24.046875 0.292969 24.214844 0.128906 24.492188 0.128906 L 24.550781 0.128906 C 24.847656 0.128906 25.023438 0.296875 25.109375 0.519531 L 26.917969 5.347656 L 28.753906 0.5 C 28.828125 0.296875 28.972656 0.113281 29.269531 0.113281 C 29.578125 0.113281 29.796875 0.332031 29.796875 0.574219 C 29.796875 0.664062 29.753906 0.765625 29.730469 0.847656 L 27.535156 6.453125 C 27.425781 6.742188 27.203125 6.898438 26.945312 6.898438 L 26.902344 6.898438 C 26.625 6.898438 26.417969 6.742188 26.316406 6.453125 L 24.523438 1.699219 L 22.714844 6.453125 C 22.621094 6.742188 22.40625 6.898438 22.136719 6.898438 L 22.105469 6.898438 C 21.828125 6.917969 21.605469 6.761719 21.496094 6.472656 M 37.394531 0.609375 C 37.394531 0.339844 37.628906 0.109375 37.921875 0.109375 C 38.230469 0.109375 38.464844 0.324219 38.464844 0.609375 L 38.464844 1.746094 C 38.996094 0.644531 40.164062 0.121094 40.941406 0.121094 C 41.265625 0.121094 41.46875 0.339844 41.46875 0.621094 C 41.46875 0.894531 41.273438 1.082031 40.992188 1.125 C 39.605469 1.28125 38.457031 2.242188 38.457031 4.148438 L 38.457031 6.398438 C 38.457031 6.667969 38.238281 6.898438 37.929688 6.898438 C 37.621094 6.898438 37.386719 6.683594 37.386719 6.398438 Z M 44.90625 6.960938 C 42.96875 6.960938 41.390625 5.578125 41.390625 3.546875 L 41.390625 3.519531 C 41.390625 1.632812 42.820312 0.109375 44.769531 0.109375 C 46.855469 0.109375 48.042969 1.691406 48.042969 3.433594 C 48.042969 3.695312 47.808594 3.894531 47.550781 3.894531 L 42.453125 3.894531 C 42.601562 5.3125 43.679688 6.113281 44.9375 6.113281 C 45.8125 6.113281 46.449219 5.796875 46.972656 5.347656 C 47.054688 5.289062 47.148438 5.234375 47.273438 5.234375 C 47.53125 5.234375 47.734375 5.421875 47.734375 5.652344 C 47.734375 5.769531 47.683594 5.882812 47.574219 5.972656 C 46.898438 6.558594 46.105469 6.960938 44.90625 6.960938 M 46.996094 3.160156 C 46.882812 1.96875 46.148438 0.925781 44.746094 0.925781 C 43.519531 0.925781 42.59375 1.875 42.453125 3.160156 Z M 29.789062 4.90625 L 29.789062 4.882812 C 29.789062 3.488281 31.039062 2.75 32.851562 2.75 C 33.769531 2.75 34.417969 2.863281 35.0625 3.03125 L 35.0625 2.800781 C 35.0625 1.609375 34.269531 1 32.925781 1 C 32.207031 1 31.789062 1.089844 31.257812 1.304688 C 31.191406 1.332031 31.121094 1.347656 31.066406 1.347656 C 30.816406 1.347656 30.597656 1.15625 30.597656 0.925781 C 30.597656 0.722656 30.691406 0.597656 30.890625 0.515625 C 31.597656 0.230469 32.132812 0.136719 33.042969 0.136719 C 34.058594 0.136719 34.835938 0.378906 35.359375 0.867188 C 35.84375 1.3125 36.09375 1.957031 36.09375 2.796875 L 36.09375 6.445312 C 36.09375 6.722656 35.871094 6.933594 35.578125 6.933594 C 35.277344 6.933594 35.070312 6.730469 35.070312 6.472656 L 35.070312 5.84375 C 34.570312 6.445312 33.734375 6.980469 32.476562 6.980469 C 31.140625 6.964844 29.789062 6.261719 29.789062 4.90625 M 35.078125 4.394531 L 35.078125 3.757812 C 34.550781 3.613281 33.84375 3.472656 32.96875 3.472656 C 31.625 3.472656 30.875 4.007812 30.875 4.839844 L 30.875 4.867188 C 30.875 5.699219 31.707031 6.1875 32.683594 6.1875 C 34 6.1875 35.078125 5.441406 35.078125 4.394531 M 2.058594 0.554688 C 1.824219 0.0820312 1.242188 -0.136719 0.699219 0.0898438 C 0.15625 0.3125 -0.0429688 0.867188 0.199219 1.339844 L 2.476562 5.902344 C 2.835938 6.621094 3.210938 6.992188 3.925781 6.992188 C 4.679688 6.992188 5.011719 6.585938 5.371094 5.902344 C 5.371094 5.902344 7.355469 1.914062 7.375 1.875 C 7.398438 1.835938 7.457031 1.707031 7.664062 1.707031 C 7.832031 1.707031 7.980469 1.835938 7.980469 2.003906 L 7.980469 5.902344 C 7.980469 6.503906 8.339844 7 9.035156 7 C 9.734375 7 10.109375 6.503906 10.109375 5.902344 L 10.109375 2.714844 C 10.109375 2.097656 10.585938 1.699219 11.242188 1.699219 C 11.894531 1.699219 12.328125 2.113281 12.328125 2.714844 L 12.328125 5.902344 C 12.328125 6.503906 12.6875 7 13.386719 7 C 14.082031 7 14.457031 6.503906 14.457031 5.902344 L 14.457031 2.714844 C 14.457031 2.097656 14.9375 1.699219 15.589844 1.699219 C 16.242188 1.699219 16.675781 2.113281 16.675781 2.714844 L 16.675781 5.902344 C 16.675781 6.503906 17.035156 7 17.734375 7 C 18.433594 7 18.808594 6.503906 18.808594 5.902344 L 18.808594 2.273438 C 18.808594 0.941406 17.648438 0.0078125 16.242188 0.0078125 C 14.847656 0.0078125 13.964844 0.898438 13.964844 0.898438 C 13.503906 0.339844 12.855469 0 11.769531 0 C 10.625 0 9.617188 0.894531 9.617188 0.894531 C 9.15625 0.339844 8.359375 0 7.699219 0 C 6.6875 0.0078125 5.878906 0.417969 5.386719 1.457031 L 3.929688 4.617188 Z M 48.125 0.925781 C 48.125 0.472656 48.515625 0.101562 49.015625 0.101562 C 49.515625 0.101562 49.902344 0.46875 49.902344 0.914062 L 49.902344 0.921875 C 49.902344 1.367188 49.515625 1.746094 49.015625 1.746094 C 48.515625 1.746094 48.125 1.375 48.125 0.925781 M 49.734375 0.921875 C 49.734375 0.546875 49.425781 0.25 49.015625 0.25 C 48.609375 0.25 48.292969 0.554688 48.292969 0.921875 L 48.292969 0.925781 C 48.292969 1.292969 48.601562 1.597656 49.015625 1.597656 C 49.417969 1.597656 49.734375 1.285156 49.734375 0.921875 "/>
<path style=" stroke:none;fill-rule:nonzero;fill:rgb(44.313725%,43.921569%,45.098039%);fill-opacity:1;" d="M 48.675781 0.601562 C 48.675781 0.554688 48.71875 0.515625 48.773438 0.515625 L 49.066406 0.515625 C 49.175781 0.515625 49.265625 0.542969 49.316406 0.597656 C 49.367188 0.636719 49.390625 0.703125 49.390625 0.777344 C 49.390625 0.898438 49.324219 0.980469 49.21875 1.023438 L 49.351562 1.171875 C 49.367188 1.191406 49.382812 1.210938 49.382812 1.238281 C 49.382812 1.285156 49.335938 1.320312 49.292969 1.320312 C 49.25 1.320312 49.21875 1.300781 49.199219 1.273438 L 49.015625 1.054688 L 48.859375 1.054688 L 48.859375 1.226562 C 48.859375 1.273438 48.816406 1.3125 48.765625 1.3125 C 48.714844 1.3125 48.667969 1.273438 48.667969 1.226562 Z M 49.058594 0.898438 C 49.152344 0.898438 49.199219 0.851562 49.199219 0.785156 C 49.199219 0.710938 49.148438 0.671875 49.050781 0.671875 L 48.859375 0.671875 L 48.859375 0.898438 Z M 49.058594 0.898438 "/>
</g>
</svg>
