<?xml version="1.0" encoding="UTF-8"?>
<svg xmlns="http://www.w3.org/2000/svg" xmlns:xlink="http://www.w3.org/1999/xlink" width="50pt" height="12pt" viewBox="0 0 50 12" version="1.1">
<g id="surface1">
<path style=" stroke:none;fill-rule:nonzero;fill:rgb(0%,47.058824%,83.921569%);fill-opacity:1;" d="M 18.628906 2.957031 L 17.128906 8.351562 L 16.398438 8.351562 L 15.300781 4.410156 C 15.253906 4.242188 15.226562 4.058594 15.21875 3.859375 L 15.203125 3.859375 C 15.1875 4.042969 15.15625 4.222656 15.105469 4.402344 L 14.003906 8.351562 L 13.28125 8.351562 L 11.722656 2.957031 L 12.410156 2.957031 L 13.539062 7.09375 C 13.585938 7.269531 13.617188 7.453125 13.628906 7.636719 L 13.648438 7.636719 C 13.660156 7.503906 13.699219 7.320312 13.761719 7.09375 L 14.9375 2.957031 L 15.535156 2.957031 L 16.664062 7.125 C 16.703125 7.265625 16.734375 7.433594 16.753906 7.628906 L 16.769531 7.628906 C 16.777344 7.496094 16.8125 7.324219 16.867188 7.109375 L 17.957031 2.957031 Z M 19.46875 3.519531 C 19.359375 3.519531 19.265625 3.484375 19.191406 3.410156 C 19.113281 3.332031 19.074219 3.238281 19.074219 3.121094 C 19.074219 3.007812 19.113281 2.910156 19.191406 2.835938 C 19.265625 2.757812 19.359375 2.71875 19.46875 2.71875 C 19.578125 2.71875 19.675781 2.757812 19.753906 2.835938 C 19.832031 2.910156 19.871094 3.007812 19.871094 3.121094 C 19.871094 3.234375 19.832031 3.328125 19.753906 3.40625 C 19.675781 3.480469 19.578125 3.519531 19.46875 3.519531 Z M 19.765625 8.351562 L 19.15625 8.351562 L 19.15625 4.5 L 19.765625 4.5 Z M 23.855469 8.351562 L 23.246094 8.351562 L 23.246094 6.152344 C 23.246094 5.335938 22.953125 4.929688 22.363281 4.929688 C 22.058594 4.929688 21.808594 5.042969 21.609375 5.277344 C 21.410156 5.507812 21.308594 5.800781 21.308594 6.152344 L 21.308594 8.351562 L 20.699219 8.351562 L 20.699219 4.5 L 21.308594 4.5 L 21.308594 5.136719 L 21.324219 5.136719 C 21.609375 4.652344 22.027344 4.410156 22.570312 4.410156 C 22.984375 4.410156 23.304688 4.542969 23.523438 4.816406 C 23.746094 5.089844 23.855469 5.480469 23.855469 5.996094 Z M 28.183594 8.351562 L 27.574219 8.351562 L 27.574219 7.695312 L 27.558594 7.695312 C 27.277344 8.191406 26.84375 8.441406 26.253906 8.441406 C 25.777344 8.441406 25.394531 8.269531 25.109375 7.921875 C 24.824219 7.578125 24.679688 7.109375 24.679688 6.515625 C 24.679688 5.878906 24.839844 5.367188 25.15625 4.984375 C 25.472656 4.601562 25.894531 4.410156 26.421875 4.410156 C 26.941406 4.410156 27.324219 4.617188 27.558594 5.03125 L 27.574219 5.03125 L 27.574219 2.648438 L 28.183594 2.648438 Z M 27.574219 6.609375 L 27.574219 6.039062 C 27.574219 5.730469 27.472656 5.46875 27.269531 5.25 C 27.066406 5.035156 26.8125 4.925781 26.5 4.925781 C 26.128906 4.925781 25.835938 5.066406 25.625 5.339844 C 25.410156 5.617188 25.304688 6 25.304688 6.484375 C 25.304688 6.929688 25.40625 7.277344 25.609375 7.535156 C 25.8125 7.792969 26.089844 7.921875 26.433594 7.921875 C 26.769531 7.921875 27.046875 7.796875 27.257812 7.546875 C 27.46875 7.300781 27.574219 6.988281 27.574219 6.609375 Z M 30.84375 8.441406 C 30.28125 8.441406 29.832031 8.261719 29.5 7.902344 C 29.164062 7.539062 28.996094 7.0625 28.996094 6.46875 C 28.996094 5.824219 29.171875 5.316406 29.519531 4.953125 C 29.867188 4.589844 30.339844 4.410156 30.933594 4.410156 C 31.5 4.410156 31.941406 4.585938 32.257812 4.9375 C 32.578125 5.292969 32.734375 5.78125 32.734375 6.410156 C 32.734375 7.023438 32.5625 7.515625 32.222656 7.886719 C 31.878906 8.253906 31.417969 8.441406 30.84375 8.441406 Z M 30.886719 4.925781 C 30.496094 4.925781 30.1875 5.0625 29.960938 5.332031 C 29.734375 5.601562 29.617188 5.972656 29.617188 6.445312 C 29.617188 6.902344 29.734375 7.261719 29.964844 7.527344 C 30.195312 7.789062 30.503906 7.921875 30.886719 7.921875 C 31.28125 7.921875 31.582031 7.792969 31.796875 7.535156 C 32.007812 7.273438 32.113281 6.90625 32.113281 6.433594 C 32.113281 5.949219 32.007812 5.578125 31.796875 5.320312 C 31.582031 5.058594 31.28125 4.925781 30.886719 4.925781 Z M 38.21875 4.5 L 37.078125 8.351562 L 36.449219 8.351562 L 35.667969 5.59375 C 35.636719 5.488281 35.617188 5.367188 35.605469 5.234375 L 35.59375 5.234375 C 35.585938 5.328125 35.558594 5.441406 35.515625 5.585938 L 34.664062 8.351562 L 34.054688 8.351562 L 32.90625 4.5 L 33.542969 4.5 L 34.332031 7.394531 C 34.355469 7.480469 34.371094 7.597656 34.382812 7.742188 L 34.410156 7.742188 C 34.417969 7.628906 34.441406 7.511719 34.480469 7.386719 L 35.355469 4.5 L 35.910156 4.5 L 36.699219 7.402344 C 36.722656 7.496094 36.742188 7.609375 36.753906 7.746094 L 36.78125 7.746094 C 36.789062 7.648438 36.808594 7.535156 36.847656 7.402344 L 37.617188 4.5 Z M 38.5 8.210938 L 38.5 7.546875 C 38.832031 7.796875 39.195312 7.921875 39.59375 7.921875 C 40.128906 7.921875 40.398438 7.742188 40.398438 7.378906 C 40.398438 7.277344 40.375 7.1875 40.328125 7.117188 C 40.28125 7.046875 40.21875 6.984375 40.144531 6.929688 C 40.066406 6.871094 39.972656 6.824219 39.867188 6.78125 C 39.753906 6.734375 39.640625 6.6875 39.527344 6.640625 C 39.359375 6.574219 39.210938 6.507812 39.085938 6.4375 C 38.957031 6.367188 38.851562 6.289062 38.765625 6.203125 C 38.683594 6.121094 38.617188 6.019531 38.574219 5.910156 C 38.53125 5.796875 38.507812 5.667969 38.507812 5.519531 C 38.507812 5.339844 38.550781 5.179688 38.628906 5.042969 C 38.710938 4.902344 38.820312 4.785156 38.957031 4.691406 C 39.09375 4.597656 39.25 4.527344 39.421875 4.480469 C 39.597656 4.433594 39.78125 4.40625 39.960938 4.410156 C 40.292969 4.410156 40.585938 4.464844 40.847656 4.582031 L 40.847656 5.207031 C 40.566406 5.019531 40.246094 4.925781 39.882812 4.925781 C 39.765625 4.925781 39.664062 4.941406 39.574219 4.964844 C 39.480469 4.992188 39.402344 5.03125 39.335938 5.078125 C 39.273438 5.125 39.222656 5.183594 39.1875 5.25 C 39.148438 5.316406 39.132812 5.390625 39.132812 5.46875 C 39.132812 5.570312 39.148438 5.652344 39.1875 5.71875 C 39.222656 5.789062 39.273438 5.847656 39.34375 5.902344 C 39.414062 5.953125 39.496094 6 39.59375 6.042969 C 39.695312 6.085938 39.808594 6.132812 39.933594 6.183594 C 40.101562 6.25 40.253906 6.316406 40.386719 6.382812 C 40.519531 6.453125 40.632812 6.53125 40.726562 6.617188 C 40.820312 6.699219 40.894531 6.800781 40.945312 6.917969 C 40.996094 7.027344 41.019531 7.164062 41.019531 7.320312 C 41.019531 7.507812 40.980469 7.675781 40.894531 7.816406 C 40.8125 7.957031 40.699219 8.074219 40.5625 8.164062 C 40.425781 8.257812 40.265625 8.328125 40.085938 8.371094 C 39.90625 8.417969 39.714844 8.4375 39.519531 8.4375 C 39.125 8.441406 38.789062 8.363281 38.5 8.210938 Z M 4.015625 5.460938 L 9.058594 5.460938 L 9.058594 1.011719 L 4.015625 1.757812 Z M 3.660156 5.460938 L 3.660156 1.8125 L 0 2.351562 L 0 5.460938 Z M 3.660156 5.824219 L 0 5.824219 L 0 8.972656 L 3.660156 9.519531 Z M 4.015625 5.824219 L 4.015625 9.570312 L 9.058594 10.324219 L 9.058594 5.824219 Z M 4.015625 5.824219 "/>
</g>
</svg>
