<?xml version="1.0" encoding="UTF-8"?>
<svg xmlns="http://www.w3.org/2000/svg" xmlns:xlink="http://www.w3.org/1999/xlink" width="48pt" height="7pt" viewBox="0 0 48 7" version="1.1">
<g id="surface1">
<path style=" stroke:none;fill-rule:nonzero;fill:rgb(18.823529%,18.823529%,20.784314%);fill-opacity:1;" d="M 2.859375 3.363281 L 2.859375 0.574219 L 0 0.984375 L 0 3.363281 Z M 3.128906 3.363281 L 6.886719 3.363281 L 6.886719 0.00390625 L 3.128906 0.550781 Z M 2.859375 3.636719 L 0 3.636719 L 0 6.035156 L 2.859375 6.425781 Z M 3.128906 3.636719 L 3.128906 6.472656 L 6.886719 6.996094 L 6.886719 3.636719 Z M 3.128906 3.636719 "/>
<path style=" stroke:none;fill-rule:nonzero;fill:rgb(18.823529%,18.823529%,20.784314%);fill-opacity:1;" d="M 35.285156 4.550781 C 35.285156 4.894531 35.171875 5.191406 34.925781 5.375 C 34.679688 5.578125 34.339844 5.671875 33.914062 5.671875 C 33.753906 5.671875 33.574219 5.648438 33.394531 5.601562 C 33.191406 5.558594 33.058594 5.488281 32.988281 5.441406 L 32.988281 4.871094 C 33.101562 4.984375 33.261719 5.078125 33.460938 5.144531 C 33.664062 5.214844 33.824219 5.257812 34.003906 5.257812 C 34.542969 5.257812 34.789062 5.054688 34.789062 4.621094 C 34.789062 4.4375 34.722656 4.300781 34.609375 4.164062 C 34.496094 4.027344 34.273438 3.867188 33.914062 3.660156 C 33.574219 3.453125 33.328125 3.269531 33.191406 3.113281 C 33.058594 2.929688 32.988281 2.722656 32.988281 2.472656 C 32.988281 2.152344 33.101562 1.878906 33.351562 1.671875 C 33.597656 1.464844 33.914062 1.351562 34.296875 1.351562 C 34.65625 1.351562 34.925781 1.398438 35.105469 1.511719 L 35.105469 2.058594 C 34.878906 1.878906 34.609375 1.808594 34.273438 1.808594 C 34.046875 1.808594 33.867188 1.878906 33.710938 1.992188 C 33.574219 2.105469 33.484375 2.265625 33.484375 2.449219 C 33.484375 2.585938 33.507812 2.699219 33.554688 2.792969 C 33.597656 2.882812 33.664062 2.953125 33.777344 3.042969 C 33.890625 3.132812 34.046875 3.226562 34.296875 3.363281 C 34.65625 3.570312 34.925781 3.773438 35.058594 3.957031 C 35.21875 4.09375 35.285156 4.324219 35.285156 4.550781 Z M 38.234375 4.230469 L 36.140625 4.230469 C 36.140625 4.574219 36.230469 4.824219 36.410156 5.007812 C 36.566406 5.191406 36.816406 5.28125 37.109375 5.28125 C 37.445312 5.28125 37.738281 5.167969 38.03125 4.960938 L 38.03125 5.417969 C 37.785156 5.601562 37.421875 5.71875 36.996094 5.71875 C 36.566406 5.71875 36.253906 5.578125 36.003906 5.304688 C 35.78125 5.03125 35.644531 4.644531 35.644531 4.164062 C 35.644531 3.867188 35.714844 3.589844 35.824219 3.363281 C 35.9375 3.113281 36.09375 2.929688 36.320312 2.792969 C 36.523438 2.65625 36.75 2.585938 37.019531 2.585938 C 37.402344 2.585938 37.695312 2.722656 37.917969 2.972656 C 38.144531 3.226562 38.234375 3.589844 38.234375 4.027344 Z M 37.761719 3.820312 C 37.761719 3.546875 37.695312 3.316406 37.558594 3.179688 C 37.421875 3.019531 37.242188 2.953125 37.019531 2.953125 C 36.792969 2.953125 36.613281 3.042969 36.457031 3.203125 C 36.296875 3.363281 36.207031 3.570312 36.164062 3.84375 L 37.761719 3.84375 Z M 40.304688 3.089844 C 40.214844 3.019531 40.101562 2.996094 39.945312 2.996094 C 39.742188 2.996094 39.5625 3.089844 39.425781 3.292969 C 39.292969 3.5 39.222656 3.75 39.222656 4.070312 L 39.222656 5.601562 L 38.75 5.601562 L 38.75 2.609375 L 39.222656 2.609375 L 39.222656 3.226562 L 39.246094 3.226562 C 39.3125 3.019531 39.402344 2.859375 39.539062 2.746094 C 39.671875 2.632812 39.832031 2.5625 40.011719 2.5625 C 40.125 2.5625 40.234375 2.585938 40.304688 2.609375 Z M 43.273438 2.609375 L 42.105469 5.601562 L 41.632812 5.601562 L 40.507812 2.609375 L 41.023438 2.609375 L 41.765625 4.78125 C 41.8125 4.894531 41.832031 5.03125 41.855469 5.191406 L 41.878906 5.191406 C 41.902344 5.054688 41.925781 4.917969 41.96875 4.78125 L 42.757812 2.585938 L 43.273438 2.585938 Z M 45.929688 4.230469 L 43.859375 4.230469 C 43.859375 4.574219 43.949219 4.824219 44.128906 5.007812 C 44.285156 5.191406 44.535156 5.28125 44.828125 5.28125 C 45.164062 5.28125 45.457031 5.167969 45.75 4.960938 L 45.75 5.417969 C 45.503906 5.601562 45.140625 5.71875 44.714844 5.71875 C 44.285156 5.71875 43.972656 5.578125 43.722656 5.304688 C 43.5 5.03125 43.363281 4.644531 43.363281 4.164062 C 43.363281 3.867188 43.433594 3.589844 43.542969 3.363281 C 43.65625 3.113281 43.8125 2.929688 44.039062 2.792969 C 44.242188 2.65625 44.46875 2.585938 44.738281 2.585938 C 45.121094 2.585938 45.410156 2.722656 45.636719 2.972656 C 45.863281 3.226562 45.953125 3.589844 45.953125 4.027344 L 45.953125 4.230469 Z M 45.457031 3.820312 C 45.457031 3.546875 45.390625 3.316406 45.253906 3.179688 C 45.121094 3.019531 44.941406 2.953125 44.714844 2.953125 C 44.488281 2.953125 44.308594 3.042969 44.152344 3.203125 C 43.996094 3.363281 43.902344 3.570312 43.859375 3.84375 L 45.457031 3.84375 Z M 48 3.089844 C 47.910156 3.019531 47.796875 2.996094 47.640625 2.996094 C 47.4375 2.996094 47.257812 3.089844 47.121094 3.292969 C 46.988281 3.5 46.917969 3.75 46.917969 4.070312 L 46.917969 5.601562 L 46.449219 5.601562 L 46.449219 2.609375 L 46.917969 2.609375 L 46.917969 3.226562 L 46.941406 3.226562 C 47.011719 3.019531 47.101562 2.859375 47.234375 2.746094 C 47.371094 2.632812 47.527344 2.5625 47.707031 2.5625 C 47.820312 2.5625 47.933594 2.585938 48 2.609375 Z M 48 3.089844 "/>
<path style=" stroke:none;fill-rule:nonzero;fill:rgb(18.823529%,18.823529%,20.784314%);fill-opacity:1;" d="M 14.3125 1.421875 L 13.140625 5.601562 L 12.578125 5.601562 L 11.722656 2.539062 C 11.703125 2.425781 11.679688 2.289062 11.65625 2.105469 L 11.632812 2.105469 L 11.566406 2.515625 L 10.710938 5.578125 L 10.148438 5.578125 L 8.957031 1.421875 L 9.472656 1.421875 L 10.351562 4.644531 C 10.398438 4.78125 10.417969 4.917969 10.417969 5.054688 L 10.441406 5.054688 C 10.441406 4.941406 10.488281 4.800781 10.53125 4.644531 L 11.453125 1.421875 L 11.925781 1.421875 L 12.804688 4.664062 C 12.828125 4.78125 12.847656 4.917969 12.871094 5.054688 C 12.871094 4.960938 12.917969 4.824219 12.941406 4.644531 L 13.792969 1.421875 Z M 15.257812 1.625 C 15.257812 1.71875 15.234375 1.785156 15.167969 1.855469 C 15.101562 1.921875 15.03125 1.945312 14.941406 1.945312 C 14.851562 1.945312 14.785156 1.921875 14.71875 1.855469 C 14.648438 1.785156 14.628906 1.71875 14.628906 1.625 C 14.628906 1.535156 14.648438 1.464844 14.71875 1.398438 C 14.785156 1.328125 14.851562 1.304688 14.941406 1.304688 C 15.03125 1.304688 15.101562 1.328125 15.167969 1.398438 C 15.210938 1.464844 15.257812 1.535156 15.257812 1.625 Z M 15.167969 5.601562 L 14.695312 5.601562 L 14.695312 2.609375 L 15.167969 2.609375 Z M 18.316406 5.601562 L 17.84375 5.601562 L 17.84375 3.886719 C 17.84375 3.25 17.621094 2.929688 17.171875 2.929688 C 16.945312 2.929688 16.742188 3.019531 16.585938 3.203125 C 16.425781 3.386719 16.359375 3.613281 16.359375 3.886719 L 16.359375 5.601562 L 15.886719 5.601562 L 15.886719 2.609375 L 16.359375 2.609375 L 16.359375 3.113281 L 16.382812 3.113281 C 16.609375 2.722656 16.921875 2.539062 17.351562 2.539062 C 17.664062 2.539062 17.914062 2.65625 18.09375 2.859375 C 18.273438 3.066406 18.339844 3.386719 18.339844 3.773438 L 18.339844 5.601562 Z M 21.601562 5.601562 L 21.128906 5.601562 L 21.128906 5.101562 L 21.109375 5.101562 C 20.882812 5.488281 20.546875 5.671875 20.097656 5.671875 C 19.714844 5.671875 19.421875 5.535156 19.195312 5.257812 C 18.96875 4.984375 18.859375 4.621094 18.859375 4.164062 C 18.859375 3.660156 18.96875 3.269531 19.21875 2.972656 C 19.464844 2.675781 19.78125 2.515625 20.207031 2.515625 C 20.613281 2.515625 20.90625 2.675781 21.085938 2.996094 L 21.109375 2.996094 L 21.109375 1.167969 L 21.582031 1.167969 L 21.582031 5.601562 Z M 21.128906 4.253906 L 21.128906 3.820312 C 21.128906 3.570312 21.039062 3.363281 20.882812 3.203125 C 20.726562 3.042969 20.523438 2.953125 20.296875 2.953125 C 20.003906 2.953125 19.78125 3.066406 19.625 3.269531 C 19.464844 3.476562 19.375 3.773438 19.375 4.164062 C 19.375 4.503906 19.441406 4.78125 19.601562 4.984375 C 19.757812 5.191406 19.960938 5.28125 20.230469 5.28125 C 20.5 5.28125 20.703125 5.191406 20.859375 4.984375 C 21.039062 4.800781 21.128906 4.550781 21.128906 4.253906 Z M 25.089844 4.09375 C 25.089844 4.574219 24.957031 4.960938 24.6875 5.238281 C 24.417969 5.535156 24.054688 5.671875 23.605469 5.671875 C 23.179688 5.671875 22.820312 5.535156 22.570312 5.257812 C 22.300781 4.984375 22.1875 4.597656 22.1875 4.140625 C 22.1875 3.636719 22.324219 3.25 22.59375 2.972656 C 22.863281 2.675781 23.222656 2.539062 23.695312 2.539062 C 24.125 2.539062 24.484375 2.675781 24.730469 2.953125 C 24.957031 3.226562 25.089844 3.613281 25.089844 4.09375 Z M 24.597656 4.117188 C 24.597656 3.75 24.507812 3.453125 24.347656 3.25 C 24.191406 3.042969 23.945312 2.953125 23.652344 2.953125 C 23.359375 2.953125 23.109375 3.066406 22.929688 3.25 C 22.75 3.453125 22.660156 3.75 22.660156 4.117188 C 22.660156 4.484375 22.75 4.757812 22.929688 4.960938 C 23.109375 5.167969 23.359375 5.257812 23.652344 5.257812 C 23.964844 5.257812 24.191406 5.167969 24.347656 4.960938 C 24.527344 4.78125 24.597656 4.484375 24.597656 4.117188 Z M 29.390625 2.609375 L 28.511719 5.601562 L 28.015625 5.601562 L 27.410156 3.453125 C 27.386719 3.386719 27.363281 3.292969 27.363281 3.179688 L 27.34375 3.179688 C 27.34375 3.25 27.320312 3.339844 27.273438 3.453125 L 26.621094 5.601562 L 26.148438 5.601562 L 25.25 2.609375 L 25.742188 2.609375 L 26.351562 4.871094 C 26.375 4.941406 26.375 5.03125 26.398438 5.144531 L 26.417969 5.144531 C 26.417969 5.078125 26.441406 4.984375 26.464844 4.871094 L 27.140625 2.632812 L 27.566406 2.632812 L 28.175781 4.894531 C 28.195312 4.960938 28.195312 5.054688 28.21875 5.167969 L 28.242188 5.167969 C 28.242188 5.078125 28.265625 4.984375 28.285156 4.894531 L 28.894531 2.632812 L 29.390625 2.632812 Z M 31.390625 4.800781 C 31.390625 5.054688 31.300781 5.28125 31.101562 5.441406 C 30.898438 5.601562 30.648438 5.695312 30.3125 5.695312 C 30.042969 5.695312 29.792969 5.625 29.59375 5.511719 L 29.59375 4.984375 C 29.816406 5.167969 30.085938 5.28125 30.355469 5.28125 C 30.738281 5.28125 30.917969 5.144531 30.917969 4.871094 C 30.917969 4.757812 30.875 4.664062 30.808594 4.597656 C 30.738281 4.527344 30.558594 4.4375 30.3125 4.300781 C 30.042969 4.1875 29.863281 4.070312 29.75 3.933594 C 29.636719 3.796875 29.59375 3.636719 29.59375 3.410156 C 29.59375 3.15625 29.683594 2.953125 29.882812 2.792969 C 30.085938 2.632812 30.335938 2.539062 30.628906 2.539062 C 30.851562 2.539062 31.078125 2.585938 31.257812 2.675781 L 31.257812 3.15625 C 31.054688 3.019531 30.851562 2.953125 30.582031 2.953125 C 30.425781 2.953125 30.3125 2.996094 30.199219 3.066406 C 30.109375 3.132812 30.066406 3.25 30.066406 3.363281 C 30.066406 3.5 30.109375 3.589844 30.175781 3.660156 C 30.246094 3.730469 30.402344 3.820312 30.628906 3.910156 C 30.898438 4.027344 31.101562 4.164062 31.210938 4.300781 C 31.347656 4.4375 31.390625 4.597656 31.390625 4.800781 Z M 31.390625 4.800781 "/>
</g>
</svg>
